<?xml version="1.0" standalone="no"?><!DOCTYPE svg PUBLIC "-//W3C//DTD SVG 1.1//EN" "http://www.w3.org/Graphics/SVG/1.1/DTD/svg11.dtd"><svg class="icon" width="32px" height="32.00px" viewBox="0 0 1024 1024" version="1.1" xmlns="http://www.w3.org/2000/svg"><path fill="#333333" d="M817.132308 756.637538l-76.8-76.603076a304.876308 304.876308 0 0 0 59.864615-181.366154 306.747077 306.747077 0 0 0-306.412308-306.412308 306.688 306.688 0 0 0-306.176 306.412308 306.688 306.688 0 0 0 306.195693 306.412307 305.368615 305.368615 0 0 0 192.196923-67.938461l75.421538 75.224615a39.384615 39.384615 0 0 0 27.766154 11.618462 40.034462 40.034462 0 0 0 27.963077-11.618462 39.384615 39.384615 0 0 0-0.019692-55.729231z m-321.378462-371.593846a109.922462 109.922462 0 0 0-109.883077 109.883077 39.384615 39.384615 0 0 1-39.384615 39.384616 39.266462 39.266462 0 0 1-39.384616-39.384616 189.046154 189.046154 0 0 1 188.652308-188.652307 39.246769 39.246769 0 0 1 39.384616 39.384615 39.384615 39.384615 0 0 1-39.384616 39.345231z"  /></svg>