<?xml version="1.0" standalone="no"?><!DOCTYPE svg PUBLIC "-//W3C//DTD SVG 1.1//EN" "http://www.w3.org/Graphics/SVG/1.1/DTD/svg11.dtd"><svg class="icon" width="32px" height="32.00px" viewBox="0 0 1024 1024" version="1.1" xmlns="http://www.w3.org/2000/svg"><path fill="#333333" d="M840.172308 421.041231a82.274462 82.274462 0 0 0-63.212308-29.538462h-176.029538l19.692307-57.107692a105.747692 105.747692 0 0 0-5.907692-84.676923c-25.009231-46.670769-45.292308-54.153846-75.421539-62.818462a58.663385 58.663385 0 0 0-15.340307-1.378461 50.766769 50.766769 0 0 0-49.230769 37.415384c-15.753846 59.076923-43.323077 167.384615-218.584616 167.384616-2.934154 0-24.989538 1.181538-24.989538 1.181538a37.415385 37.415385 0 0 0-37.415385 37.415385v297.353846a82.865231 82.865231 0 0 0 82.707692 82.904615h455.286154a84.066462 84.066462 0 0 0 82.707693-69.710769l44.091076-250.88a83.160615 83.160615 0 0 0-18.35323-67.544615z m-413.538462 232.172307a39.384615 39.384615 0 0 1-39.384615 39.384616 39.522462 39.522462 0 0 1-39.384616-39.384616v-124.061538a39.384615 39.384615 0 0 1 39.384616-39.384615 39.227077 39.227077 0 0 1 39.384615 39.384615z"  /></svg>