<?xml version="1.0" standalone="no"?><!DOCTYPE svg PUBLIC "-//W3C//DTD SVG 1.1//EN" "http://www.w3.org/Graphics/SVG/1.1/DTD/svg11.dtd"><svg class="icon" width="32px" height="32.00px" viewBox="0 0 1024 1024" version="1.1" xmlns="http://www.w3.org/2000/svg"><path fill="#333333" d="M845.390769 352.551385a65.752615 65.752615 0 0 0-66.166154-11.027693l-72.054153 24.615385a31.330462 31.330462 0 0 1-34.678154-9.846154l-100.824616-122.88a80.324923 80.324923 0 0 0-37.80923-26.190769 76.681846 76.681846 0 0 0-81.132308 24.615384l-101.021539 124.061539a31.192615 31.192615 0 0 1-34.244923 10.043077l-73.668923-24.418462a65.476923 65.476923 0 0 0-65.969231 11.027693 65.673846 65.673846 0 0 0-17.723076 64.787692l73.452307 329.255385a106.496 106.496 0 0 0 98.855385 79.36h358.203077a101.513846 101.513846 0 0 0 99.052307-79.36l73.255385-329.255385a64.984615 64.984615 0 0 0-17.526154-64.787692z m-223.488 335.950769H402.510769a39.502769 39.502769 0 0 1-39.384615-39.384616 39.384615 39.384615 0 0 1 39.384615-39.384615h219.392a39.266462 39.266462 0 0 1 39.384616 39.384615 39.384615 39.384615 0 0 1-39.384616 39.345231z"  /></svg>