<?xml version="1.0" standalone="no"?><!DOCTYPE svg PUBLIC "-//W3C//DTD SVG 1.1//EN" "http://www.w3.org/Graphics/SVG/1.1/DTD/svg11.dtd"><svg class="icon" width="32px" height="32.00px" viewBox="0 0 1024 1024" version="1.1" xmlns="http://www.w3.org/2000/svg"><path fill="#333333" d="M875.815385 449.673846l-112.029539-239.458461a39.620923 39.620923 0 0 0-35.662769-22.646154H296.093538a39.148308 39.148308 0 0 0-35.662769 22.646154l-112.246154 239.458461a39.483077 39.483077 0 0 0 7.483077 44.110769l328.073846 339.298462a39.640615 39.640615 0 0 0 28.356924 12.012308 38.872615 38.872615 0 0 0 28.16-12.012308l328.270769-339.298462a39.699692 39.699692 0 0 0 7.286154-44.110769z m-360.96 204.012308a39.758769 39.758769 0 0 1-27.372308 11.027692 39.049846 39.049846 0 0 1-28.356923-12.012308l-128.196923-132.726153a39.640615 39.640615 0 0 1 0.984615-55.729231 39.384615 39.384615 0 0 1 55.729231 0.984615l128.196923 132.726154a39.384615 39.384615 0 0 1-1.024 55.729231z"  /></svg>