<?xml version="1.0" standalone="no"?><!DOCTYPE svg PUBLIC "-//W3C//DTD SVG 1.1//EN" "http://www.w3.org/Graphics/SVG/1.1/DTD/svg11.dtd"><svg class="icon" width="32px" height="32.00px" viewBox="0 0 1024 1024" version="1.1" xmlns="http://www.w3.org/2000/svg"><path fill="#333333" d="M737.142154 359.404308a226.934154 226.934154 0 0 0-224.866462-198.104616 227.249231 227.249231 0 0 0-224.905846 197.907693 86.646154 86.646154 0 0 0-81.526154 86.252307v318.621539a86.823385 86.823385 0 0 0 86.646154 86.843077h438.941539a86.980923 86.980923 0 0 0 86.843077-86.843077v-318.621539a86.646154 86.646154 0 0 0-81.132308-86.055384z m-185.698462 303.655384a39.384615 39.384615 0 0 1-39.384615 39.384616 39.246769 39.246769 0 0 1-39.384615-39.384616v-116.578461a39.384615 39.384615 0 0 1 39.384615-39.384616 39.502769 39.502769 0 0 1 39.384615 39.384616z m-184.32-304.246154a148.263385 148.263385 0 0 1 145.152-118.744615 148.105846 148.105846 0 0 1 145.112616 118.744615z"  /></svg>