<?xml version="1.0" standalone="no"?><!DOCTYPE svg PUBLIC "-//W3C//DTD SVG 1.1//EN" "http://www.w3.org/Graphics/SVG/1.1/DTD/svg11.dtd"><svg class="icon" width="32px" height="32.00px" viewBox="0 0 1024 1024" version="1.1" xmlns="http://www.w3.org/2000/svg"><path fill="#333333" d="M864.708923 313.718154a140.898462 140.898462 0 0 0-140.819692-140.8 140.583385 140.583385 0 0 0-121.501539 69.710769 304.305231 304.305231 0 0 0-90.368-13.587692 304.147692 304.147692 0 0 0-90.387692 13.587692 140.583385 140.583385 0 0 0-121.521231-69.710769 140.780308 140.780308 0 0 0-140.8 140.8 140.583385 140.583385 0 0 0 63.606154 117.76 304.502154 304.502154 0 0 0-18.510769 104.96 305.408 305.408 0 0 0 77.193846 203.224615l-45.883077 43.126154a39.483077 39.483077 0 0 0-1.575385 55.729231 38.813538 38.813538 0 0 0 28.553847 12.406154 38.636308 38.636308 0 0 0 26.998153-10.83077l51.2-48.246153a305.723077 305.723077 0 0 0 171.145847 51.987692 304.541538 304.541538 0 0 0 170.909538-51.987692l51.2 48.246153a39.049846 39.049846 0 0 0 26.978462 10.83077 39.522462 39.522462 0 0 0 28.750769-12.406154 39.384615 39.384615 0 0 0-1.772308-55.729231l-45.883077-43.126154a305.408 305.408 0 0 0 77.193846-203.224615 304.502154 304.502154 0 0 0-18.491077-104.96 140.701538 140.701538 0 0 0 63.783385-117.76z m-604.967385 47.064615a61.696 61.696 0 0 1-21.661538-47.064615 62.030769 62.030769 0 0 1 62.030769-62.030769 61.499077 61.499077 0 0 1 49.033846 24.221538 306.136615 306.136615 0 0 0-89.403077 84.873846z m344.418462 254.227693h-109.292308a39.384615 39.384615 0 0 1-39.384615-39.384616v-138.436923a39.502769 39.502769 0 0 1 39.384615-39.384615 39.384615 39.384615 0 0 1 39.384616 39.384615v99.052308h69.907692a39.502769 39.502769 0 0 1 39.384615 39.384615 39.384615 39.384615 0 0 1-39.384615 39.384616z m159.901538-254.227693a303.025231 303.025231 0 0 0-89.206153-84.873846 61.282462 61.282462 0 0 1 49.033846-24.221538 62.168615 62.168615 0 0 1 62.050461 62.030769 61.243077 61.243077 0 0 1-21.878154 47.064615z"  /></svg>