<?xml version="1.0" standalone="no"?><!DOCTYPE svg PUBLIC "-//W3C//DTD SVG 1.1//EN" "http://www.w3.org/Graphics/SVG/1.1/DTD/svg11.dtd"><svg class="icon" width="32px" height="32.00px" viewBox="0 0 1024 1024" version="1.1" xmlns="http://www.w3.org/2000/svg"><path fill="#333333" d="M531.081846 358.459077h1.417846a105.787077 105.787077 0 0 0 84.578462 42.299077 105.196308 105.196308 0 0 0 94.286769-57.580308 104.192 104.192 0 0 0 11.815385-48.443077 103.640615 103.640615 0 0 0-11.657846-48.049231 105.235692 105.235692 0 0 0-94.365539-57.757538 105.767385 105.767385 0 0 0-92.809846 54.843077 106.043077 106.043077 0 0 0-12.996923 50.963692 108.150154 108.150154 0 0 0 12.662154 50.688z"  /><path fill="#333333" d="M746.535385 340.637538h37.789538a45.843692 45.843692 0 0 0 45.804308-45.804307 45.863385 45.863385 0 0 0-45.804308-45.804308H746.535385l2.441846 7.699692a125.656615 125.656615 0 0 1 5.907692 38.104616 125.459692 125.459692 0 0 1-5.907692 38.104615z"  /><path fill="#333333" d="M239.635692 340.637538h248.123077l-2.579692-7.876923a119.591385 119.591385 0 0 1-6.104615-38.025846 119.670154 119.670154 0 0 1 6.104615-38.025846l2.579692-7.876923h-248.123077a45.863385 45.863385 0 0 0-45.804307 45.804308 45.843692 45.843692 0 0 0 45.804307 46.00123z"  /><path fill="#333333" d="M617.058462 623.261538a105.747692 105.747692 0 0 0-92.809847 54.823385 106.062769 106.062769 0 0 0-12.996923 50.983385 108.307692 108.307692 0 0 0 12.662154 50.688l7.148308 13.016615h1.417846a105.787077 105.787077 0 0 0 84.578462 42.299077 105.196308 105.196308 0 0 0 94.286769-57.580308 104.113231 104.113231 0 0 0 11.815384-48.423384 103.581538 103.581538 0 0 0-11.657846-48.049231 105.235692 105.235692 0 0 0-94.444307-57.757539z"  /><path fill="#333333" d="M784.324923 683.362462H746.535385l2.441846 7.699692a125.636923 125.636923 0 0 1 5.907692 38.104615 125.636923 125.636923 0 0 1-5.907692 38.104616l-2.441846 7.699692h37.789538a45.843692 45.843692 0 0 0 45.804308-45.804308 45.843692 45.843692 0 0 0-45.804308-45.804307z"  /><path fill="#333333" d="M487.896615 683.362462h-248.123077a45.843692 45.843692 0 0 0-45.804307 45.804307 45.843692 45.843692 0 0 0 45.804307 45.804308h248.123077l-2.579692-7.876923a119.670154 119.670154 0 0 1-6.104615-38.025846 119.689846 119.689846 0 0 1 6.104615-38.025846z"  /><path fill="#333333" d="M500.066462 460.839385l-7.148308-12.996923h-1.398154a105.767385 105.767385 0 0 0-84.558769-42.299077 105.196308 105.196308 0 0 0-94.286769 57.580307 104.113231 104.113231 0 0 0-11.815385 48.423385 103.601231 103.601231 0 0 0 11.657846 48.049231 105.216 105.216 0 0 0 94.365539 57.77723 105.708308 105.708308 0 0 0 92.770461-54.823384 105.905231 105.905231 0 0 0 13.036308-51.003077 107.795692 107.795692 0 0 0-12.622769-50.707692z"  /><path fill="#333333" d="M239.635692 557.252923h37.789539l-2.441846-7.699692a125.617231 125.617231 0 0 1-5.907693-38.104616 125.617231 125.617231 0 0 1 5.907693-38.104615l2.441846-7.699692h-37.789539a45.863385 45.863385 0 0 0-45.804307 45.804307 45.843692 45.843692 0 0 0 45.804307 45.804308z"  /><path fill="#333333" d="M784.324923 465.644308h-248.123077l2.579692 7.876923a119.847385 119.847385 0 0 1 6.084924 38.025846 119.748923 119.748923 0 0 1-6.084924 38.025846l-2.579692 7.876923h248.123077a45.843692 45.843692 0 0 0 45.804308-45.804308 45.863385 45.863385 0 0 0-45.804308-46.00123z"  /></svg>