<?xml version="1.0" standalone="no"?><!DOCTYPE svg PUBLIC "-//W3C//DTD SVG 1.1//EN" "http://www.w3.org/Graphics/SVG/1.1/DTD/svg11.dtd"><svg class="icon" width="32px" height="32.00px" viewBox="0 0 1024 1024" version="1.1" xmlns="http://www.w3.org/2000/svg"><path fill="#333333" d="M639.980308 699.687385a131.150769 131.150769 0 0 1-131.15077-131.15077 131.150769 131.150769 0 0 1 131.15077-131.150769h144.364307a114.077538 114.077538 0 0 1 30.916923 4.155077v-48.265846a88.418462 88.418462 0 0 0-88.418461-88.418462h-14.375385l-52.578461-102.596923a88.615385 88.615385 0 0 0-118.941539-38.4l-266.062769 136.467693c-20.086154 10.633846-79.931077 25.206154-79.931077 92.947692v348.770461a88.615385 88.615385 0 0 0 88.418462 88.418462h443.470769a88.418462 88.418462 0 0 0 88.418461-88.418462v-46.493538a114.825846 114.825846 0 0 1-30.916923 4.135385z m-63.212308-465.723077a9.708308 9.708308 0 0 1 13.016615 4.135384l34.244923 66.756923H438.350769z"  /><path fill="#333333" d="M795.864615 506.348308h-155.884307a62.227692 62.227692 0 0 0-62.227693 62.227692 62.227692 62.227692 0 0 0 62.227693 62.227692h155.884307a62.227692 62.227692 0 0 0 62.227693-62.227692 62.227692 62.227692 0 0 0-62.227693-62.227692z"  /></svg>