<?xml version="1.0" standalone="no"?><!DOCTYPE svg PUBLIC "-//W3C//DTD SVG 1.1//EN" "http://www.w3.org/Graphics/SVG/1.1/DTD/svg11.dtd"><svg class="icon" width="32px" height="32.00px" viewBox="0 0 1024 1024" version="1.1" xmlns="http://www.w3.org/2000/svg"><path fill="#333333" d="M842.909538 248.536615a81.230769 81.230769 0 0 0-76.012307-39.581538h-505.698462a81.703385 81.703385 0 0 0-76.189538 39.581538 82.038154 82.038154 0 0 0 8.251077 85.661539l202.830769 258.363077a43.323077 43.323077 0 0 1 9.058461 26.584615v175.655385a30.956308 30.956308 0 0 0 45.489231 30.916923l140.603077-56.32a49.664 49.664 0 0 0 31.310769-46.276923v-103.975385a42.417231 42.417231 0 0 1 9.058462-26.387692l201.058461-258.56a82.353231 82.353231 0 0 0 10.24-85.661539z m-365.095384 250.88a39.542154 39.542154 0 0 1-22.449231 6.892308 39.660308 39.660308 0 0 1-32.492308-16.935385l-66.363077-96.295384a39.227077 39.227077 0 0 1 9.846154-54.744616 39.542154 39.542154 0 0 1 54.961231 10.043077l66.343385 96.295385a39.384615 39.384615 0 0 1-9.885539 54.744615z"  /></svg>