<?xml version="1.0" standalone="no"?><!DOCTYPE svg PUBLIC "-//W3C//DTD SVG 1.1//EN" "http://www.w3.org/Graphics/SVG/1.1/DTD/svg11.dtd"><svg class="icon" width="32px" height="32.00px" viewBox="0 0 1024 1024" version="1.1" xmlns="http://www.w3.org/2000/svg"><path fill="#333333" d="M746.436923 394.259692h-482.264615a19.849846 19.849846 0 0 0-19.889231 19.889231v343.827692a87.847385 87.847385 0 0 0 88.438154 86.843077h345.974154a87.689846 87.689846 0 0 0 87.630769-87.630769v-343.04a19.830154 19.830154 0 0 0-19.889231-19.889231z m-135.463385 275.298462a39.266462 39.266462 0 0 1 0 55.532308 39.384615 39.384615 0 0 1-27.785846 11.618461 40.073846 40.073846 0 0 1-27.963077-11.618461l-49.821538-49.821539-50.018462 49.821539a39.187692 39.187692 0 0 1-27.766153 11.618461 39.384615 39.384615 0 0 1-27.963077-11.618461 39.266462 39.266462 0 0 1 0-55.532308l50.018461-50.018462-50.018461-50.018461a39.502769 39.502769 0 0 1 0-55.729231 39.384615 39.384615 0 0 1 55.72923 0l50.018462 50.018462 49.821538-50.018462a39.384615 39.384615 0 0 1 55.748923 0 39.502769 39.502769 0 0 1 0 55.729231l-49.84123 50.018461z"  /><path fill="#333333" d="M806.715077 326.124308a39.266462 39.266462 0 0 0 39.266461-39.266462 39.384615 39.384615 0 0 0-39.266461-39.384615H204.012308a39.384615 39.384615 0 0 0-39.286154 39.384615 39.384615 39.384615 0 0 0 39.286154 39.266462h588.150154z"  /><path fill="#333333" d="M614.439385 210.057846a52.676923 52.676923 0 0 0-52.598154-52.617846h-112.955077a52.657231 52.657231 0 0 0-52.598154 52.617846s0.137846 50.609231 0.196923 51.2h217.757539c0.059077-0.590769 0.196923-51.2 0.196923-51.2z"  /></svg>