<?xml version="1.0" standalone="no"?><!DOCTYPE svg PUBLIC "-//W3C//DTD SVG 1.1//EN" "http://www.w3.org/Graphics/SVG/1.1/DTD/svg11.dtd"><svg class="icon" width="32px" height="32.00px" viewBox="0 0 1024 1024" version="1.1" xmlns="http://www.w3.org/2000/svg"><path fill="#333333" d="M773.868308 289.102769l-199.68-115.2a133.297231 133.297231 0 0 0-124.23877 0l-199.699692 115.2a133.632 133.632 0 0 0-62.227692 107.52v230.596923a133.691077 133.691077 0 0 0 62.227692 107.716923l199.699692 115.2a125.302154 125.302154 0 0 0 62.011077 15.36 126.188308 126.188308 0 0 0 62.227693-15.36l199.68-115.2a133.435077 133.435077 0 0 0 62.030769-107.716923v-230.596923a133.376 133.376 0 0 0-62.030769-107.52z m-264.467693 323.938462a104.152615 104.152615 0 0 1-104.152615-103.975385 104.152615 104.152615 0 0 1 104.152615-103.975384 104.132923 104.132923 0 0 1 103.975385 103.975384 104.132923 104.132923 0 0 1-103.975385 103.975385z"  /></svg>