<?xml version="1.0" standalone="no"?><!DOCTYPE svg PUBLIC "-//W3C//DTD SVG 1.1//EN" "http://www.w3.org/Graphics/SVG/1.1/DTD/svg11.dtd"><svg class="icon" width="32px" height="32.00px" viewBox="0 0 1024 1024" version="1.1" xmlns="http://www.w3.org/2000/svg"><path fill="#333333" d="M871.896615 411.628308a78.985846 78.985846 0 0 0-63.803077-53.956923l-155.56923-22.449231-69.71077-141.587692a78.276923 78.276923 0 0 0-70.892307-44.11077 78.532923 78.532923 0 0 0-70.892308 44.11077l-69.533538 141.390769-155.569231 22.646154a78.769231 78.769231 0 0 0-63.783385 53.956923 78.572308 78.572308 0 0 0 19.869539 81.132307l112.64 110.08-26.564923 155.569231a78.414769 78.414769 0 0 0 31.507692 77.390769 77.312 77.312 0 0 0 46.296615 15.36 80.738462 80.738462 0 0 0 37.021539-9.255384l139.008-73.452308 139.224615 73.452308a79.970462 79.970462 0 0 0 83.298462-6.104616 78.631385 78.631385 0 0 0 31.507692-77.390769l-26.801231-155.372308 112.856616-110.276923a78.926769 78.926769 0 0 0 19.88923-81.132307z m-240.620307 108.898461a39.620923 39.620923 0 0 1-29.361231 13.193846 38.656 38.656 0 0 1-26.190769-10.24l-74.633846-67.150769a39.522462 39.522462 0 0 1-2.953847-55.729231 39.384615 39.384615 0 0 1 55.532308-2.953846l74.633846 67.347693a39.384615 39.384615 0 0 1 2.973539 55.492923z"  /></svg>