<?xml version="1.0" standalone="no"?><!DOCTYPE svg PUBLIC "-//W3C//DTD SVG 1.1//EN" "http://www.w3.org/Graphics/SVG/1.1/DTD/svg11.dtd"><svg class="icon" width="32px" height="32.00px" viewBox="0 0 1024 1024" version="1.1" xmlns="http://www.w3.org/2000/svg"><path fill="#333333" d="M797.538462 693.740308h-16.20677A325.592615 325.592615 0 0 0 512 185.088a45.292308 45.292308 0 0 0 0 90.584615 234.909538 234.909538 0 0 1 200.861538 357.021539v-24.713846a45.292308 45.292308 0 1 0-90.584615 0v131.052307a45.292308 45.292308 0 0 0 45.292308 45.292308h129.969231a45.292308 45.292308 0 1 0 0-90.584615z"  /><path fill="#333333" d="M512 748.347077a235.362462 235.362462 0 0 1-235.086769-235.086769 232.900923 232.900923 0 0 1 34.205538-121.836308v18.471385a45.292308 45.292308 0 1 0 90.584616 0v-131.032616a45.292308 45.292308 0 0 0-45.292308-45.292307h-129.969231a45.292308 45.292308 0 0 0 0 90.584615h20.657231a325.395692 325.395692 0 0 0 264.881231 514.776615 45.292308 45.292308 0 1 0 0-90.584615z"  /></svg>