<?xml version="1.0" standalone="no"?><!DOCTYPE svg PUBLIC "-//W3C//DTD SVG 1.1//EN" "http://www.w3.org/Graphics/SVG/1.1/DTD/svg11.dtd"><svg class="icon" width="32px" height="32.00px" viewBox="0 0 1024 1024" version="1.1" xmlns="http://www.w3.org/2000/svg"><path fill="#333333" d="M488.290462 249.403077a29.203692 29.203692 0 0 0-10.57477-22.488615 29.184 29.184 0 0 0-24.024615-6.22277A316.908308 316.908308 0 0 0 195.032615 531.298462 316.908308 316.908308 0 0 0 512.590769 848.856615a316.908308 316.908308 0 0 0 310.626462-258.579692 29.164308 29.164308 0 0 0-6.242462-24.004923 29.184 29.184 0 0 0-22.468923-10.594462h-242.215384a64.078769 64.078769 0 0 1-64.07877-64.078769z"  /><path fill="#333333" d="M609.122462 195.406769a29.243077 29.243077 0 0 0-23.906462 6.340923 29.321846 29.321846 0 0 0-10.496 22.409846v180.519385a64.098462 64.098462 0 0 0 64.098462 64.098462h180.558769a29.203692 29.203692 0 0 0 22.390154-10.476308 29.164308 29.164308 0 0 0 6.340923-23.906462A297.353846 297.353846 0 0 0 609.122462 195.406769z"  /></svg>