<?xml version="1.0" standalone="no"?><!DOCTYPE svg PUBLIC "-//W3C//DTD SVG 1.1//EN" "http://www.w3.org/Graphics/SVG/1.1/DTD/svg11.dtd"><svg class="icon" width="32px" height="32.00px" viewBox="0 0 1024 1024" version="1.1" xmlns="http://www.w3.org/2000/svg"><path fill="#333333" d="M818.845538 298.299077a11.815385 11.815385 0 0 0 2.717539-15.616 89.560615 89.560615 0 0 0-75.795692-41.984h-467.495385a90.033231 90.033231 0 0 0-75.874462 41.944615 11.815385 11.815385 0 0 0 2.717539 15.655385l296.566154 230.813538a16.699077 16.699077 0 0 0 20.499692 0zM567.414154 587.52a90.722462 90.722462 0 0 1-110.867692 0l-246.35077-191.625846a13.784615 13.784615 0 0 0-22.252307 10.889846v285.302154a91.273846 91.273846 0 0 0 26.190769 64.393846 89.225846 89.225846 0 0 0 64 26.781538l467.692308-0.196923a90.702769 90.702769 0 0 0 90.210461-90.781538v-285.538462a13.784615 13.784615 0 0 0-22.252308-10.889846z"  /></svg>