<?xml version="1.0" standalone="no"?><!DOCTYPE svg PUBLIC "-//W3C//DTD SVG 1.1//EN" "http://www.w3.org/Graphics/SVG/1.1/DTD/svg11.dtd"><svg class="icon" width="32px" height="32.00px" viewBox="0 0 1024 1024" version="1.1" xmlns="http://www.w3.org/2000/svg"><path fill="#333333" d="M800.137846 270.867692a242.510769 242.510769 0 0 0-288.098461-39.778461 242.451692 242.451692 0 0 0-288.098462 39.778461 235.953231 235.953231 0 0 0-27.943385 306.018462c0.964923 1.378462 10.811077 14.966154 18.688 23.827692 2.56 2.953846 6.715077 7.68 232.763077 220.356923a94.523077 94.523077 0 0 0 64.59077 25.6 94.070154 94.070154 0 0 0 64.393846-25.6c226.067692-212.48 230.596923-217.796923 232.96-220.356923 7.876923-8.861538 17.545846-22.449231 18.707692-23.827692a236.307692 236.307692 0 0 0-27.963077-306.018462z m-311.926154 377.501539a38.931692 38.931692 0 0 1-28.750769 12.406154 38.971077 38.971077 0 0 1-26.978461-10.83077l-121.698462-114.60923a39.384615 39.384615 0 0 1-1.555692-55.729231 39.384615 39.384615 0 0 1 55.709538-1.575385l121.698462 114.609231a39.384615 39.384615 0 0 1 1.575384 55.729231z"  /></svg>