<?xml version="1.0" standalone="no"?><!DOCTYPE svg PUBLIC "-//W3C//DTD SVG 1.1//EN" "http://www.w3.org/Graphics/SVG/1.1/DTD/svg11.dtd"><svg class="icon" width="32px" height="32.00px" viewBox="0 0 1024 1024" version="1.1" xmlns="http://www.w3.org/2000/svg"><path fill="#333333" d="M512.039385 184.418462a327.995077 327.995077 0 0 0-327.660308 327.483076v251.47077a76.425846 76.425846 0 0 0 76.386461 76.20923h251.273847a328.073846 328.073846 0 0 0 327.699692-327.68 328.034462 328.034462 0 0 0-327.699692-327.483076z m-159.684923 386.756923a48.462769 48.462769 0 0 1-34.087385-14.178462 47.773538 47.773538 0 0 1-13.981539-33.870769 47.990154 47.990154 0 0 1 48.068924-48.049231 48.226462 48.226462 0 0 1 48.029538 48.049231 48.226462 48.226462 0 0 1-48.068923 48.088615z m159.507692 0a47.872 47.872 0 0 1-33.851077-14.178462 47.694769 47.694769 0 0 1-13.981539-33.870769 47.990154 47.990154 0 0 1 48.029539-48.049231 48.068923 48.068923 0 0 1 47.852308 48.049231 48.108308 48.108308 0 0 1-48.108308 48.088615z m193.575384-13.981539a48.285538 48.285538 0 0 1-33.851076 13.981539 47.970462 47.970462 0 0 1-33.890462-14.178462 47.143385 47.143385 0 0 1-14.178462-33.870769 47.596308 47.596308 0 0 1 14.178462-34.067692 47.793231 47.793231 0 0 1 33.890462-13.981539 48.128 48.128 0 0 1 34.048 14.178462 47.497846 47.497846 0 0 1 13.981538 33.870769 47.675077 47.675077 0 0 1-14.237538 34.067692z"  /></svg>