<?xml version="1.0" standalone="no"?><!DOCTYPE svg PUBLIC "-//W3C//DTD SVG 1.1//EN" "http://www.w3.org/Graphics/SVG/1.1/DTD/svg11.dtd"><svg class="icon" width="32px" height="32.00px" viewBox="0 0 1024 1024" version="1.1" xmlns="http://www.w3.org/2000/svg"><path fill="#333333" d="M864.492308 303.872a98.008615 98.008615 0 0 0-99.268923-96.492308H611.249231a98.008615 98.008615 0 0 0-99.249231 96.492308v407.630769a20.164923 20.164923 0 0 1-9.708308 17.230769 20.125538 20.125538 0 0 1-19.692307 0.630154l-69.277539-36.076307a102.163692 102.163692 0 0 0-47.261538-11.59877h-107.283693a16.305231 16.305231 0 0 1-17.506461-14.710153V303.793231a16.324923 16.324923 0 0 1 17.506461-14.710154h104.743385a19.396923 19.396923 0 0 1 10.712615 3.229538l21.996308 14.592a40.900923 40.900923 0 0 0 56.654769-11.480615 40.881231 40.881231 0 0 0-11.460923-56.654769l-22.094769-14.631385a100.903385 100.903385 0 0 0-55.965538-16.797538h-104.585847a98.008615 98.008615 0 0 0-99.24923 96.492307v363.185231a98.008615 98.008615 0 0 0 99.24923 96.492308h107.362462a20.066462 20.066462 0 0 1 9.275077 2.284308l89.363692 47.005538a101.435077 101.435077 0 0 0 47.261539 11.657846 101.297231 101.297231 0 0 0 47.261538-11.657846l89.521231-47.064615a19.908923 19.908923 0 0 1 9.216-2.225231h107.264a98.008615 98.008615 0 0 0 99.268923-96.492308z"  /><path fill="#333333" d="M341.326769 383.350154a40.861538 40.861538 0 0 0-40.881231 40.861538 40.861538 40.861538 0 0 0 40.881231 40.861539h60.731077a40.881231 40.881231 0 0 0 40.881231-40.861539 40.881231 40.881231 0 0 0-40.881231-40.861538z"  /></svg>